<?xml version="1.0" standalone="no"?>
<!DOCTYPE svg PUBLIC "-//W3C//DTD SVG 20010904//EN"
 "http://www.w3.org/TR/2001/REC-SVG-20010904/DTD/svg10.dtd">
<svg version="1.0" xmlns="http://www.w3.org/2000/svg"
 width="835.000000pt" height="835.000000pt" viewBox="0 0 835.000000 835.000000"
 preserveAspectRatio="xMidYMid meet">
<metadata>
Created by potrace 1.14, written by Peter Selinger 2001-2017
</metadata>
<g transform="translate(0.000000,835.000000) scale(0.100000,-0.100000)"
fill="#000000" stroke="none">
<path d="M4130 7791 c-140 -300 -275 -498 -977 -1436 -24 -33 -223 -328 -259
-385 -112 -179 -277 -534 -298 -642 -2 -13 -9 -35 -14 -49 -6 -14 -13 -39 -16
-55 -2 -16 -12 -67 -21 -114 -20 -100 -29 -403 -14 -500 5 -36 11 -81 14 -100
3 -19 7 -46 10 -60 3 -14 7 -34 9 -45 73 -374 284 -777 630 -1205 20 -25 40
-49 44 -55 4 -5 53 -66 108 -135 203 -255 340 -444 456 -630 73 -117 190 -339
234 -442 15 -37 32 -65 36 -62 8 5 4 226 -5 241 -3 4 -8 26 -11 47 -18 110
-96 359 -221 706 -238 656 -326 979 -363 1330 -14 129 -7 409 12 520 68 394
269 701 627 953 l66 46 84 -67 c87 -69 257 -234 322 -312 42 -50 157 -215 157
-224 0 -4 10 -23 23 -44 53 -85 138 -321 153 -422 3 -19 7 -41 9 -48 24 -70
23 -408 -1 -548 -2 -16 -9 -56 -15 -89 -33 -195 -132 -508 -267 -840 -46 -115
-93 -232 -104 -260 -10 -27 -23 -59 -28 -70 -53 -110 -149 -401 -179 -538 -24
-113 -33 -337 -13 -337 4 0 29 51 56 113 27 61 70 148 94 192 25 44 51 93 59
108 27 50 224 339 312 456 87 116 230 302 254 331 38 46 283 379 339 460 241
354 388 690 423 966 4 27 8 60 11 74 2 14 4 72 5 130 3 385 -137 823 -404
1269 -98 163 -344 516 -451 648 -42 51 -278 360 -386 504 -121 161 -283 401
-332 489 -14 25 -37 67 -52 93 -15 26 -37 67 -49 91 l-22 44 -45 -97z"/>
<path d="M8150 5770 c-30 -10 -86 -25 -125 -33 -68 -15 -92 -19 -205 -33 -30
-3 -206 -8 -390 -9 -184 -2 -348 -6 -365 -9 -16 -4 -59 -14 -94 -22 -228 -52
-447 -208 -582 -414 -121 -184 -181 -336 -314 -795 -105 -363 -179 -567 -272
-747 -2 -3 21 0 49 8 29 8 73 17 98 20 25 3 54 8 65 10 11 2 31 6 45 8 14 3
50 8 81 11 31 3 65 7 75 9 11 2 46 7 79 10 33 4 71 9 85 10 14 2 54 6 90 10
65 8 79 9 155 20 22 3 58 8 80 11 23 3 50 7 60 9 11 2 40 7 65 11 25 4 54 9
65 11 11 2 33 7 48 9 104 19 329 81 382 105 11 5 45 19 75 32 225 94 396 247
478 429 37 81 72 198 88 289 4 25 8 47 9 50 1 4 6 36 20 130 2 14 11 75 20
135 8 61 20 133 25 160 5 28 12 61 14 75 23 127 81 316 132 428 19 41 34 75
34 78 0 6 -11 4 -70 -16z"/>
<path d="M167 5763 c4 -9 16 -37 28 -62 72 -150 145 -449 170 -696 3 -33 8
-67 10 -75 2 -8 7 -35 10 -60 11 -80 35 -214 44 -248 5 -18 10 -36 10 -40 2
-21 47 -144 69 -187 121 -243 362 -403 767 -510 80 -21 279 -62 335 -70 25 -3
52 -8 60 -10 8 -2 39 -7 69 -10 30 -4 62 -8 72 -10 10 -2 42 -6 71 -9 29 -4
62 -8 73 -10 11 -2 47 -7 80 -10 33 -4 71 -8 85 -11 14 -2 48 -7 75 -10 44 -5
91 -12 210 -32 17 -2 57 -11 90 -18 32 -8 61 -13 62 -11 2 2 -12 37 -31 77
-78 169 -114 272 -207 599 -88 308 -128 440 -139 465 -5 11 -18 47 -30 80 -96
267 -250 484 -429 605 -109 73 -265 137 -376 154 -16 2 -50 8 -75 12 -25 4
-175 8 -335 9 -263 2 -404 9 -445 20 -8 3 -31 7 -50 9 -60 9 -170 36 -238 60
-37 13 -40 13 -35 -1z"/>
<path d="M6698 3565 c-2 -1 -43 -5 -93 -8 -93 -6 -102 -8 -220 -31 -194 -39
-417 -132 -617 -257 -44 -28 -86 -55 -92 -60 -6 -5 -58 -45 -115 -90 -129
-101 -240 -205 -366 -340 -193 -208 -413 -519 -577 -814 -118 -212 -298 -628
-298 -690 0 -12 115 -49 185 -59 23 -4 52 -9 65 -12 14 -3 79 -7 145 -9 176
-6 294 19 440 92 116 58 199 125 298 239 83 95 84 97 146 194 88 138 96 152
135 230 21 41 42 82 46 90 5 8 30 60 56 115 266 568 353 692 559 791 196 95
408 128 618 97 89 -12 299 -77 305 -94 2 -5 10 -9 17 -9 8 0 54 -27 102 -59
147 -99 276 -247 362 -419 36 -71 96 -246 106 -307 4 -22 8 -51 11 -65 10 -56
11 -259 2 -315 -5 -33 -11 -76 -15 -95 -9 -59 -62 -197 -100 -262 -160 -278
-486 -469 -803 -471 -143 0 -246 33 -326 105 -36 33 -94 138 -94 170 0 17 4
15 38 -10 112 -89 320 -101 447 -27 145 86 209 289 152 486 -67 228 -330 378
-592 338 -108 -17 -163 -46 -245 -129 -111 -113 -178 -236 -231 -425 -33 -117
-34 -329 -1 -433 71 -225 225 -369 497 -462 206 -71 438 -84 650 -35 311 71
625 272 808 518 94 126 178 333 218 539 18 89 23 150 23 288 1 263 -21 412
-94 631 -137 410 -412 726 -785 900 -71 32 -234 91 -290 104 -11 2 -38 9 -60
14 -22 5 -58 12 -80 15 -23 4 -52 9 -65 11 -14 3 -65 8 -115 11 -49 2 -104 6
-122 8 -18 2 -33 3 -35 1z"/>
<path d="M1537 3534 c-1 -1 -36 -5 -77 -8 -103 -8 -127 -12 -268 -47 -638
-157 -1052 -621 -1169 -1314 -18 -103 -24 -446 -10 -530 19 -115 38 -194 68
-287 34 -105 92 -224 152 -312 84 -124 267 -288 422 -377 309 -179 613 -228
954 -155 13 3 40 11 60 18 20 7 38 13 41 13 41 11 171 75 223 109 192 129 290
318 289 561 -1 192 -55 367 -168 541 -89 135 -174 200 -302 228 -137 31 -304
2 -420 -73 -141 -90 -217 -223 -221 -388 -4 -166 56 -288 179 -360 70 -42 212
-57 303 -32 50 13 147 59 147 70 0 4 6 9 14 12 18 7 12 -23 -16 -81 -69 -140
-195 -203 -400 -198 -171 3 -323 51 -483 151 -83 52 -227 186 -272 255 -63 94
-124 244 -139 336 -3 22 -10 59 -14 84 -14 73 -4 276 18 380 92 434 364 744
750 856 114 33 126 34 270 38 184 5 329 -27 499 -111 189 -92 294 -239 507
-703 227 -494 375 -719 579 -879 35 -28 67 -51 70 -51 3 0 27 -13 54 -30 189
-116 521 -135 809 -48 l41 13 -23 78 c-77 258 -268 647 -471 957 -284 433
-590 753 -938 979 -212 139 -476 248 -667 276 -24 4 -45 8 -48 10 -15 9 -335
27 -343 19z"/>
</g>
</svg>
